<svg id="visual" viewBox="0 0 675 900" width="675" height="900" xmlns="http://www.w3.org/2000/svg" xmlns:xlink="http://www.w3.org/1999/xlink" version="1.1"><rect x="0" y="0" width="675" height="900" fill="#0182bd"></rect><path d="M0 679L37.5 674.3C75 669.7 150 660.3 225 656.2C300 652 375 653 450 650.2C525 647.3 600 640.7 637.5 637.3L675 634L675 0L637.5 0C600 0 525 0 450 0C375 0 300 0 225 0C150 0 75 0 37.5 0L0 0Z" fill="#0182bd"></path><path d="M0 690L37.5 674.7C75 659.3 150 628.7 225 625.3C300 622 375 646 450 660C525 674 600 678 637.5 680L675 682L675 0L637.5 0C600 0 525 0 450 0C375 0 300 0 225 0C150 0 75 0 37.5 0L0 0Z" fill="#0175b0"></path><path d="M0 554L37.5 547.2C75 540.3 150 526.7 225 536.5C300 546.3 375 579.7 450 598.3C525 617 600 621 637.5 623L675 625L675 0L637.5 0C600 0 525 0 450 0C375 0 300 0 225 0C150 0 75 0 37.5 0L0 0Z" fill="#0169a4"></path><path d="M0 506L37.5 490.7C75 475.3 150 444.7 225 432.2C300 419.7 375 425.3 450 430.7C525 436 600 441 637.5 443.5L675 446L675 0L637.5 0C600 0 525 0 450 0C375 0 300 0 225 0C150 0 75 0 37.5 0L0 0Z" fill="#025d97"></path><path d="M0 435L37.5 429.8C75 424.7 150 414.3 225 405.2C300 396 375 388 450 393.7C525 399.3 600 418.7 637.5 428.3L675 438L675 0L637.5 0C600 0 525 0 450 0C375 0 300 0 225 0C150 0 75 0 37.5 0L0 0Z" fill="#03518a"></path><path d="M0 371L37.5 369.7C75 368.3 150 365.7 225 359.8C300 354 375 345 450 344C525 343 600 350 637.5 353.5L675 357L675 0L637.5 0C600 0 525 0 450 0C375 0 300 0 225 0C150 0 75 0 37.5 0L0 0Z" fill="#03457d"></path><path d="M0 194L37.5 211.2C75 228.3 150 262.7 225 277.3C300 292 375 287 450 282.5C525 278 600 274 637.5 272L675 270L675 0L637.5 0C600 0 525 0 450 0C375 0 300 0 225 0C150 0 75 0 37.5 0L0 0Z" fill="#043a70"></path><path d="M0 178L37.5 172.7C75 167.3 150 156.7 225 157C300 157.3 375 168.7 450 179C525 189.3 600 198.7 637.5 203.3L675 208L675 0L637.5 0C600 0 525 0 450 0C375 0 300 0 225 0C150 0 75 0 37.5 0L0 0Z" fill="#042f64"></path><path d="M0 95L37.5 95.2C75 95.3 150 95.7 225 93C300 90.3 375 84.7 450 80.7C525 76.7 600 74.3 637.5 73.2L675 72L675 0L637.5 0C600 0 525 0 450 0C375 0 300 0 225 0C150 0 75 0 37.5 0L0 0Z" fill="#032457"></path></svg>