<?xml version="1.0" standalone="no"?>
<!DOCTYPE svg PUBLIC "-//W3C//DTD SVG 20010904//EN"
 "http://www.w3.org/TR/2001/REC-SVG-20010904/DTD/svg10.dtd">
<svg version="1.0" xmlns="http://www.w3.org/2000/svg"
 width="980.000000pt" height="980.000000pt" viewBox="0 0 980.000000 980.000000"
 preserveAspectRatio="xMidYMid meet">
<metadata>
Created by potrace 1.15, written by Peter Selinger 2001-2017
</metadata>
<g transform="translate(0.000000,980.000000) scale(0.100000,-0.100000)"
fill="#000000" stroke="none">
<path d="M935 9789 c-475 -69 -858 -455 -924 -933 -7 -51 -11 -456 -11 -1202
l0 -1124 272 2 273 3 5 1155 5 1155 22 53 c64 157 195 281 352 335 l66 22
1138 3 1137 3 0 269 0 270 -1137 -1 c-626 -1 -1165 -5 -1198 -10z"/>
<path d="M6530 9530 l0 -269 1138 -3 1137 -3 66 -22 c159 -54 287 -176 352
-335 l22 -53 5 -1155 5 -1155 273 -3 272 -2 0 1124 c0 746 -4 1151 -11 1202
-67 484 -449 866 -933 933 -51 7 -456 11 -1202 11 l-1124 0 0 -270z"/>
<path d="M0 4900 l0 -270 4900 0 4900 0 0 270 0 270 -4900 0 -4900 0 0 -270z"/>
<path d="M0 2146 c0 -746 4 -1151 11 -1202 62 -445 380 -796 830 -916 l84 -22
1172 -3 1173 -4 0 270 0 270 -1137 3 -1138 3 -66 22 c-157 54 -288 178 -352
335 l-22 53 -5 1155 -5 1155 -272 3 -273 2 0 -1124z"/>
<path d="M9258 2133 l-3 -1138 -22 -66 c-42 -123 -125 -228 -235 -300 -75 -48
-132 -67 -239 -79 -49 -6 -531 -10 -1156 -10 l-1073 0 0 -270 0 -270 1124 0
c746 0 1151 4 1202 11 235 32 443 135 613 302 152 149 245 312 303 528 l22 84
3 1173 4 1172 -270 0 -270 0 -3 -1137z"/>
</g>
</svg>
