<?xml version="1.0" encoding="UTF-8" ?>
<!DOCTYPE svg PUBLIC "-//W3C//DTD SVG 1.1//EN" "http://www.w3.org/Graphics/SVG/1.1/DTD/svg11.dtd">
<svg width="512pt" height="512pt" viewBox="0 0 512 512" version="1.1" xmlns="http://www.w3.org/2000/svg">
<g id="#2d82c2ff">
<path fill="#2d82c2" opacity="1.00" d=" M 0.00 0.00 L 9.63 0.00 C 27.63 20.00 42.44 43.12 51.26 68.63 C 56.54 84.54 59.57 101.21 59.90 117.98 C 60.54 139.70 56.94 161.34 51.20 182.23 C 42.61 212.91 29.55 242.10 15.75 270.73 C 10.38 281.29 5.55 292.12 0.00 302.58 L 0.00 246.66 C 10.33 221.41 18.58 195.18 23.23 168.27 C 28.93 135.14 27.42 100.27 15.37 68.67 C 11.26 57.77 6.34 47.13 0.00 37.34 L 0.00 0.00 Z" />
<path fill="#2d82c2" opacity="1.00" d=" M 13.69 0.00 L 51.63 0.00 C 63.58 13.91 74.52 28.86 82.67 45.35 C 90.18 60.71 95.56 77.19 97.87 94.16 C 102.56 127.00 96.35 160.41 85.44 191.42 C 71.92 229.97 52.06 265.83 32.82 301.74 C 21.40 322.79 10.33 344.03 0.00 365.64 L 0.00 321.62 C 6.94 308.14 12.94 294.20 19.49 280.53 C 38.90 238.49 58.19 195.31 63.87 148.91 C 67.81 118.31 64.02 86.66 51.85 58.24 C 43.52 38.53 31.53 20.55 17.76 4.25 C 16.48 2.76 15.12 1.34 13.69 0.00 Z" />
<path fill="#2d82c2" opacity="1.00" d=" M 55.61 0.00 L 93.63 0.00 C 112.20 21.24 127.47 46.01 134.44 73.56 C 139.37 92.89 140.54 113.16 137.94 132.93 C 133.52 167.88 119.85 200.83 104.10 232.07 C 85.93 267.61 64.78 301.51 45.32 336.34 C 37.94 350.15 29.90 363.68 24.10 378.25 C 22.08 380.62 20.01 382.93 18.11 385.40 C 13.02 385.83 7.92 386.12 2.81 386.42 C 8.68 368.67 16.99 351.85 24.99 334.99 C 43.48 297.17 64.23 260.42 80.49 221.53 C 95.96 184.53 107.64 144.47 103.85 103.96 C 100.54 64.99 81.58 28.70 55.61 0.00 Z" />
<path fill="#2d82c2" opacity="1.00" d=" M 97.60 0.00 L 135.71 0.00 C 152.71 19.20 166.53 41.63 173.66 66.39 C 176.44 75.39 177.78 84.73 179.06 94.04 C 156.65 119.45 141.21 151.00 135.41 184.42 C 132.00 203.54 131.80 223.16 134.27 242.41 C 129.86 248.75 126.21 255.56 122.18 262.13 C 103.07 293.64 82.69 324.37 64.43 356.39 C 62.83 359.21 61.33 362.08 59.87 364.98 C 53.09 365.00 46.33 366.16 39.89 368.27 C 41.59 361.77 44.97 355.93 47.98 349.98 C 74.07 298.56 106.04 250.00 126.99 196.07 C 140.37 161.67 148.24 123.97 141.82 87.15 C 136.23 54.48 119.38 24.63 97.60 0.00 Z" />
<path fill="#2d82c2" opacity="1.00" d=" M 139.57 0.00 L 178.42 0.00 C 194.12 18.59 207.43 39.64 214.25 63.17 C 203.06 70.91 192.65 79.75 183.18 89.52 C 181.51 82.28 180.30 74.94 178.22 67.80 C 170.88 42.57 156.92 19.59 139.57 0.00 Z" />
<path fill="#2d82c2" opacity="1.00" d=" M 181.60 0.00 L 220.72 0.00 C 227.85 8.10 234.24 16.88 239.91 26.06 C 243.68 31.99 246.25 38.62 250.28 44.39 C 238.79 48.85 227.86 54.60 217.40 61.09 C 212.71 45.42 204.87 30.83 195.55 17.44 C 191.14 11.45 186.92 5.24 181.60 0.00 Z" />
<path fill="#2d82c2" opacity="1.00" d=" M 224.43 0.00 L 263.65 0.00 C 272.69 10.56 280.40 22.14 287.24 34.21 C 275.25 36.29 263.42 39.41 252.04 43.74 C 250.52 38.47 247.95 33.59 245.13 28.92 C 239.23 18.61 232.08 9.06 224.43 0.00 Z" />
<path fill="#2d82c2" opacity="1.00" d=" M 266.64 0.00 L 306.63 0.00 C 314.83 9.97 322.63 20.43 328.30 32.08 C 315.52 31.85 302.68 31.81 290.01 33.78 C 283.74 21.59 275.98 10.04 266.64 0.00 Z" />
<path fill="#2d82c2" opacity="1.00" d=" M 309.61 0.00 L 349.70 0.00 C 359.93 12.41 369.53 25.72 375.27 40.86 C 361.19 36.50 346.68 33.49 331.98 32.29 C 325.78 20.74 318.41 9.74 309.61 0.00 Z" />
<path fill="#2d82c2" opacity="1.00" d=" M 352.63 0.00 L 392.72 0.00 C 406.34 15.35 417.10 33.50 422.74 53.31 C 423.94 57.49 424.61 61.80 425.11 66.11 C 410.82 56.24 395.35 48.12 379.03 42.16 C 373.05 26.59 363.61 12.47 352.63 0.00 Z" />
<path fill="#2d82c2" opacity="1.00" d=" M 396.32 0.00 L 436.61 0.00 C 449.92 16.09 461.25 34.39 466.11 54.90 C 470.13 71.71 470.51 89.63 466.05 106.39 C 455.43 92.40 442.91 79.90 429.07 69.09 C 426.40 43.13 412.60 19.81 396.32 0.00 Z" />
<path fill="#2d82c2" opacity="1.00" d=" M 439.51 0.00 L 480.31 0.00 C 489.93 12.09 499.17 24.81 504.53 39.44 C 508.64 49.38 510.49 60.02 512.00 70.61 L 512.00 85.39 C 510.72 93.72 509.51 102.10 507.22 110.23 C 503.26 124.18 497.36 137.57 490.11 150.13 C 484.60 136.15 477.47 122.85 468.97 110.47 C 472.72 97.96 473.31 84.69 472.34 71.73 C 469.94 44.93 457.02 20.05 439.51 0.00 Z" />
<path fill="#2d82c2" opacity="1.00" d=" M 483.32 0.00 L 512.00 0.00 L 512.00 51.57 C 509.95 45.55 507.80 39.56 505.28 33.72 C 499.62 21.50 491.92 10.32 483.32 0.00 Z" />
<path fill="#2d82c2" opacity="1.00" d=" M 0.00 45.43 C 15.89 73.98 22.50 107.22 20.54 139.73 C 19.09 165.08 12.83 189.88 4.84 213.89 C 3.43 218.20 1.58 222.35 0.00 226.60 L 0.00 45.43 Z" />
<path fill="#2d82c2" opacity="1.00" d=" M 491.81 154.61 C 501.15 140.51 506.83 124.40 512.00 108.40 L 512.00 177.44 C 508.66 182.19 504.86 186.60 500.73 190.66 C 498.78 178.42 495.79 166.35 491.81 154.61 Z" />
<path fill="#2d82c2" opacity="1.00" d=" M 501.41 196.97 C 504.95 192.75 508.64 188.66 512.00 184.30 L 512.00 220.63 C 508.95 224.15 505.43 227.22 501.94 230.28 C 502.04 219.18 502.32 208.04 501.41 196.97 Z" />
<path fill="#2d82c2" opacity="1.00" d=" M 501.34 237.31 C 504.91 234.00 508.64 230.84 512.00 227.30 L 512.00 254.63 C 506.60 259.76 500.91 264.59 495.01 269.12 C 497.92 258.70 500.12 248.07 501.34 237.31 Z" />
<path fill="#2d82c2" opacity="1.00" d=" M 127.36 266.39 C 130.03 261.66 132.73 256.95 135.94 252.57 C 138.01 262.18 140.51 271.72 143.97 280.93 C 136.37 292.73 127.85 303.95 120.95 316.18 C 114.97 319.64 108.98 323.18 103.76 327.75 C 96.52 333.96 90.60 341.66 86.11 350.07 C 82.87 356.06 81.07 362.66 78.95 369.09 C 75.82 368.10 72.70 367.05 69.52 366.24 C 87.08 331.98 108.04 299.64 127.36 266.39 Z" />
<path fill="#2d82c2" opacity="1.00" d=" M 492.57 277.03 C 499.82 272.75 505.43 266.35 512.00 261.17 L 512.00 283.78 C 507.16 288.42 501.67 292.30 496.54 296.60 C 489.69 302.14 483.01 307.90 475.78 312.96 C 482.36 301.47 488.01 289.46 492.57 277.03 Z" />
<path fill="#2d82c2" opacity="1.00" d=" M 132.68 311.93 C 136.81 303.97 141.85 296.52 147.24 289.37 C 150.16 296.08 153.72 302.47 156.92 309.05 C 148.78 309.25 140.56 309.68 132.68 311.93 Z" />
<path fill="#2d82c2" opacity="1.00" d=" M 473.56 322.57 C 486.25 311.72 499.24 301.24 512.00 290.48 L 512.00 310.54 C 497.86 321.54 483.71 332.54 469.75 343.79 C 464.35 348.11 458.88 352.38 453.83 357.11 C 448.39 357.45 442.94 357.87 437.49 357.81 C 447.48 349.08 456.48 339.30 464.85 329.02 C 467.80 326.94 470.82 324.93 473.56 322.57 Z" />
<path fill="#2d82c2" opacity="1.00" d=" M 474.01 348.03 C 486.63 337.76 499.14 327.35 512.00 317.38 L 512.00 334.75 C 503.87 341.85 494.52 347.47 486.77 355.03 C 479.42 355.18 472.13 356.17 464.78 356.31 C 467.73 353.41 470.80 350.64 474.01 348.03 Z" />
<path fill="#2d82c2" opacity="1.00" d=" M 497.75 354.04 C 502.09 349.67 507.19 346.19 512.00 342.38 L 512.00 353.31 C 507.27 353.86 502.50 353.80 497.75 354.04 Z" />
</g>
<g id="#0091d3ff">
<path fill="#0091d3" opacity="1.00" d=" M 9.63 0.00 L 13.69 0.00 C 15.12 1.34 16.48 2.76 17.76 4.25 C 31.53 20.55 43.52 38.53 51.85 58.24 C 64.02 86.66 67.81 118.31 63.87 148.91 C 58.19 195.31 38.90 238.49 19.49 280.53 C 12.94 294.20 6.94 308.14 0.00 321.62 L 0.00 302.58 C 5.55 292.12 10.38 281.29 15.75 270.73 C 29.55 242.10 42.61 212.91 51.20 182.23 C 56.94 161.34 60.54 139.70 59.90 117.98 C 59.57 101.21 56.54 84.54 51.26 68.63 C 42.44 43.12 27.63 20.00 9.63 0.00 Z" />
<path fill="#0091d3" opacity="1.00" d=" M 51.63 0.00 L 55.61 0.00 C 81.58 28.70 100.54 64.99 103.85 103.96 C 107.64 144.47 95.96 184.53 80.49 221.53 C 64.23 260.42 43.48 297.17 24.99 334.99 C 16.99 351.85 8.68 368.67 2.81 386.42 C 2.11 386.46 0.70 386.54 0.00 386.59 L 0.00 365.64 C 10.33 344.03 21.40 322.79 32.82 301.74 C 52.06 265.83 71.92 229.97 85.44 191.42 C 96.35 160.41 102.56 127.00 97.87 94.16 C 95.56 77.19 90.18 60.71 82.67 45.35 C 74.52 28.86 63.58 13.91 51.63 0.00 Z" />
<path fill="#0091d3" opacity="1.00" d=" M 93.63 0.00 L 97.60 0.00 C 119.38 24.63 136.23 54.48 141.82 87.15 C 148.24 123.97 140.37 161.67 126.99 196.07 C 106.04 250.00 74.07 298.56 47.98 349.98 C 44.97 355.93 41.59 361.77 39.89 368.27 C 34.30 371.03 28.99 374.38 24.10 378.25 C 29.90 363.68 37.94 350.15 45.32 336.34 C 64.78 301.51 85.93 267.61 104.10 232.07 C 119.85 200.83 133.52 167.88 137.94 132.93 C 140.54 113.16 139.37 92.89 134.44 73.56 C 127.47 46.01 112.20 21.24 93.63 0.00 Z" />
<path fill="#0091d3" opacity="1.00" d=" M 135.71 0.00 L 139.57 0.00 C 156.92 19.59 170.88 42.57 178.22 67.80 C 180.30 74.94 181.51 82.28 183.18 89.52 C 181.77 90.99 180.40 92.50 179.06 94.04 C 177.78 84.73 176.44 75.39 173.66 66.39 C 166.53 41.63 152.71 19.20 135.71 0.00 Z" />
<path fill="#0091d3" opacity="1.00" d=" M 178.42 0.00 L 181.60 0.00 C 186.92 5.24 191.14 11.45 195.55 17.44 C 204.87 30.83 212.71 45.42 217.40 61.09 C 216.34 61.77 215.29 62.46 214.25 63.17 C 207.43 39.64 194.12 18.59 178.42 0.00 Z" />
<path fill="#0091d3" opacity="1.00" d=" M 220.72 0.00 L 224.43 0.00 C 232.08 9.06 239.23 18.61 245.13 28.92 C 247.95 33.59 250.52 38.47 252.04 43.74 C 251.60 43.90 250.72 44.23 250.28 44.39 C 246.25 38.62 243.68 31.99 239.91 26.06 C 234.24 16.88 227.85 8.10 220.72 0.00 Z" />
<path fill="#0091d3" opacity="1.00" d=" M 263.65 0.00 L 266.64 0.00 C 275.98 10.04 283.74 21.59 290.01 33.78 C 289.32 33.89 287.93 34.10 287.24 34.21 C 280.40 22.14 272.69 10.56 263.65 0.00 Z" />
<path fill="#0091d3" opacity="1.00" d=" M 306.63 0.00 L 309.61 0.00 C 318.41 9.74 325.78 20.74 331.98 32.29 C 330.75 32.20 329.53 32.13 328.30 32.08 C 322.63 20.43 314.83 9.97 306.63 0.00 Z" />
<path fill="#0091d3" opacity="1.00" d=" M 349.70 0.00 L 352.63 0.00 C 363.61 12.47 373.05 26.59 379.03 42.16 C 377.78 41.70 376.53 41.27 375.27 40.86 C 369.53 25.72 359.93 12.41 349.70 0.00 Z" />
<path fill="#0091d3" opacity="1.00" d=" M 392.72 0.00 L 396.32 0.00 C 412.60 19.81 426.40 43.13 429.07 69.09 C 427.76 68.07 426.45 67.07 425.11 66.11 C 424.61 61.80 423.94 57.49 422.74 53.31 C 417.10 33.50 406.34 15.35 392.72 0.00 Z" />
<path fill="#0091d3" opacity="1.00" d=" M 436.61 0.00 L 439.51 0.00 C 457.02 20.05 469.94 44.93 472.34 71.73 C 473.31 84.69 472.72 97.96 468.97 110.47 C 468.01 109.10 467.05 107.73 466.05 106.39 C 470.51 89.63 470.13 71.71 466.11 54.90 C 461.25 34.39 449.92 16.09 436.61 0.00 Z" />
<path fill="#0091d3" opacity="1.00" d=" M 480.31 0.00 L 483.32 0.00 C 491.92 10.32 499.62 21.50 505.28 33.72 C 507.80 39.56 509.95 45.55 512.00 51.57 L 512.00 70.61 C 510.49 60.02 508.64 49.38 504.53 39.44 C 499.17 24.81 489.93 12.09 480.31 0.00 Z" />
<path fill="#0091d3" opacity="1.00" d=" M 0.00 37.34 C 6.34 47.13 11.26 57.77 15.37 68.67 C 27.42 100.27 28.93 135.14 23.23 168.27 C 18.58 195.18 10.33 221.41 0.00 246.66 L 0.00 226.60 C 1.58 222.35 3.43 218.20 4.84 213.89 C 12.83 189.88 19.09 165.08 20.54 139.73 C 22.50 107.22 15.89 73.98 0.00 45.43 L 0.00 37.34 Z" />
<path fill="#0091d3" opacity="1.00" d=" M 305.41 58.48 C 336.32 56.15 367.90 62.87 394.92 78.14 C 423.14 93.91 446.34 118.49 460.38 147.62 C 481.94 191.56 481.36 245.46 458.96 288.96 C 445.13 315.99 423.50 339.00 397.20 354.19 C 373.30 368.09 345.68 375.77 318.00 375.51 C 288.52 375.96 259.09 367.44 234.06 351.95 C 205.38 334.26 182.56 307.19 170.14 275.86 C 158.00 245.67 155.49 211.71 163.08 180.07 C 170.14 149.93 186.38 122.08 208.96 100.94 C 235.03 76.35 269.64 61.00 305.41 58.48 M 362.40 86.60 C 354.56 87.98 346.76 91.40 341.32 97.33 C 337.24 101.86 337.60 108.74 340.05 113.96 C 344.86 123.68 353.33 131.27 363.03 135.95 C 381.08 146.06 397.51 159.88 408.20 177.80 C 410.62 181.68 412.22 186.18 415.66 189.35 C 419.16 192.55 423.15 195.75 428.01 196.43 C 431.60 196.99 435.34 195.45 437.63 192.65 C 443.84 184.86 447.74 174.53 445.60 164.52 C 441.78 144.60 428.68 128.25 415.31 113.68 C 408.64 107.63 401.57 101.97 394.13 96.90 C 384.85 90.66 373.97 84.87 362.40 86.60 Z" />
<path fill="#0091d3" opacity="1.00" d=" M 507.22 110.23 C 509.51 102.10 510.72 93.72 512.00 85.39 L 512.00 108.40 C 506.83 124.40 501.15 140.51 491.81 154.61 C 491.26 153.10 490.70 151.61 490.11 150.13 C 497.36 137.57 503.26 124.18 507.22 110.23 Z" />
<path fill="#0091d3" opacity="1.00" d=" M 500.73 190.66 C 504.86 186.60 508.66 182.19 512.00 177.44 L 512.00 184.30 C 508.64 188.66 504.95 192.75 501.41 196.97 C 501.22 194.86 501.01 192.75 500.73 190.66 Z" />
<path fill="#0091d3" opacity="1.00" d=" M 501.94 230.28 C 505.43 227.22 508.95 224.15 512.00 220.63 L 512.00 227.30 C 508.64 230.84 504.91 234.00 501.34 237.31 C 501.59 234.97 501.81 232.63 501.94 230.28 Z" />
<path fill="#0091d3" opacity="1.00" d=" M 122.18 262.13 C 126.21 255.56 129.86 248.75 134.27 242.41 C 134.75 245.81 135.29 249.20 135.94 252.57 C 132.73 256.95 130.03 261.66 127.36 266.39 C 108.04 299.64 87.08 331.98 69.52 366.24 C 66.35 365.53 63.12 365.15 59.87 364.98 C 61.33 362.08 62.83 359.21 64.43 356.39 C 82.69 324.37 103.07 293.64 122.18 262.13 Z" />
<path fill="#0091d3" opacity="1.00" d=" M 495.01 269.12 C 500.91 264.59 506.60 259.76 512.00 254.63 L 512.00 261.17 C 505.43 266.35 499.82 272.75 492.57 277.03 C 493.45 274.41 494.25 271.77 495.01 269.12 Z" />
<path fill="#0091d3" opacity="1.00" d=" M 120.95 316.18 C 127.85 303.95 136.37 292.73 143.97 280.93 C 145.02 283.76 146.07 286.59 147.24 289.37 C 141.85 296.52 136.81 303.97 132.68 311.93 C 128.72 313.21 124.82 314.66 120.95 316.18 Z" />
<path fill="#0091d3" opacity="1.00" d=" M 496.54 296.60 C 501.67 292.30 507.16 288.42 512.00 283.78 L 512.00 290.48 C 499.24 301.24 486.25 311.72 473.56 322.57 C 470.82 324.93 467.80 326.94 464.85 329.02 C 468.59 323.73 472.04 318.24 475.78 312.96 C 483.01 307.90 489.69 302.14 496.54 296.60 Z" />
<path fill="#0091d3" opacity="1.00" d=" M 469.75 343.79 C 483.71 332.54 497.86 321.54 512.00 310.54 L 512.00 317.38 C 499.14 327.35 486.63 337.76 474.01 348.03 C 470.80 350.64 467.73 353.41 464.78 356.31 C 461.13 356.55 457.49 356.96 453.83 357.11 C 458.88 352.38 464.35 348.11 469.75 343.79 Z" />
<path fill="#0091d3" opacity="1.00" d=" M 486.77 355.03 C 494.52 347.47 503.87 341.85 512.00 334.75 L 512.00 342.38 C 507.19 346.19 502.09 349.67 497.75 354.04 C 494.10 354.43 490.45 354.98 486.77 355.03 Z" />
<path fill="#0091d3" opacity="1.00" d=" M 143.35 336.41 C 155.09 334.11 167.70 335.79 178.09 341.86 C 189.91 348.41 198.63 360.09 201.85 373.18 C 204.91 385.20 203.14 398.32 197.14 409.17 C 189.93 422.50 176.26 432.16 161.25 434.37 C 151.84 435.69 141.99 434.69 133.31 430.70 C 120.83 425.19 110.89 414.32 106.49 401.42 C 101.32 386.90 103.56 370.03 112.29 357.34 C 119.34 346.62 130.82 339.02 143.35 336.41 M 166.43 344.55 C 163.67 345.34 160.41 346.92 159.84 350.05 C 160.06 354.75 164.13 357.97 167.93 360.07 C 174.00 363.41 179.26 368.25 182.63 374.35 C 184.10 376.95 187.15 380.02 190.37 378.44 C 193.87 375.47 194.68 370.21 193.02 366.06 C 190.30 358.82 184.95 352.75 178.70 348.31 C 175.20 345.80 170.90 343.32 166.43 344.55 Z" />
<path fill="#0091d3" opacity="1.00" d=" M 55.37 391.45 C 61.77 390.60 68.46 392.48 73.47 396.55 C 80.32 401.94 83.69 411.32 81.88 419.84 C 80.59 426.65 76.17 432.78 70.07 436.09 C 62.61 440.31 52.86 440.06 45.64 435.40 C 37.56 430.40 33.12 420.34 34.89 411.00 C 36.53 400.97 45.22 392.53 55.37 391.45 M 61.38 399.00 C 62.20 401.55 64.83 402.71 66.82 404.22 C 70.22 406.42 72.23 410.06 75.09 412.85 C 76.74 411.44 78.43 409.55 77.77 407.20 C 76.50 402.17 72.41 398.12 67.83 395.90 C 65.47 394.79 61.32 395.95 61.38 399.00 Z" />
</g>
<g id="#001d7eff">
<path fill="#001d7e" opacity="1.00" d=" M 290.01 33.78 C 302.68 31.81 315.52 31.85 328.30 32.08 C 329.53 32.13 330.75 32.20 331.98 32.29 C 346.68 33.49 361.19 36.50 375.27 40.86 C 376.53 41.27 377.78 41.70 379.03 42.16 C 395.35 48.12 410.82 56.24 425.11 66.11 C 426.45 67.07 427.76 68.07 429.07 69.09 C 442.91 79.90 455.43 92.40 466.05 106.39 C 467.05 107.73 468.01 109.10 468.97 110.47 C 477.47 122.85 484.60 136.15 490.11 150.13 C 490.70 151.61 491.26 153.10 491.81 154.61 C 495.79 166.35 498.78 178.42 500.73 190.66 C 501.01 192.75 501.22 194.86 501.41 196.97 C 502.32 208.04 502.04 219.18 501.94 230.28 C 501.81 232.63 501.59 234.97 501.34 237.31 C 500.12 248.07 497.92 258.70 495.01 269.12 C 494.25 271.77 493.45 274.41 492.57 277.03 C 488.01 289.46 482.36 301.47 475.78 312.96 C 472.04 318.24 468.59 323.73 464.85 329.02 C 456.48 339.30 447.48 349.08 437.49 357.81 C 412.16 379.10 381.27 393.83 348.57 399.28 C 314.06 405.01 277.87 401.13 245.65 387.36 C 240.13 385.04 234.80 382.34 229.41 379.76 C 230.32 396.29 226.26 413.19 216.95 426.98 C 208.57 439.96 195.95 449.75 181.91 455.98 C 171.13 459.81 159.75 461.60 148.32 461.31 C 138.46 460.00 128.61 457.80 119.70 453.26 C 113.05 450.10 107.29 445.45 101.56 440.90 C 94.18 452.80 82.03 461.80 68.17 464.36 C 57.34 465.98 45.81 465.22 35.98 460.01 C 20.21 452.22 9.16 435.60 8.43 417.98 C 7.71 406.42 11.20 394.68 18.11 385.40 C 20.01 382.93 22.08 380.62 24.10 378.25 C 28.99 374.38 34.30 371.03 39.89 368.27 C 46.33 366.16 53.09 365.00 59.87 364.98 C 63.12 365.15 66.35 365.53 69.52 366.24 C 72.70 367.05 75.82 368.10 78.95 369.09 C 81.07 362.66 82.87 356.06 86.11 350.07 C 90.60 341.66 96.52 333.96 103.76 327.75 C 108.98 323.18 114.97 319.64 120.95 316.18 C 124.82 314.66 128.72 313.21 132.68 311.93 C 140.56 309.68 148.78 309.25 156.92 309.05 C 153.72 302.47 150.16 296.08 147.24 289.37 C 146.07 286.59 145.02 283.76 143.97 280.93 C 140.51 271.72 138.01 262.18 135.94 252.57 C 135.29 249.20 134.75 245.81 134.27 242.41 C 131.80 223.16 132.00 203.54 135.41 184.42 C 141.21 151.00 156.65 119.45 179.06 94.04 C 180.40 92.50 181.77 90.99 183.18 89.52 C 192.65 79.75 203.06 70.91 214.25 63.17 C 215.29 62.46 216.34 61.77 217.40 61.09 C 227.86 54.60 238.79 48.85 250.28 44.39 C 250.72 44.23 251.60 43.90 252.04 43.74 C 263.42 39.41 275.25 36.29 287.24 34.21 C 287.93 34.10 289.32 33.89 290.01 33.78 M 305.41 58.48 C 269.64 61.00 235.03 76.35 208.96 100.94 C 186.38 122.08 170.14 149.93 163.08 180.07 C 155.49 211.71 158.00 245.67 170.14 275.86 C 182.56 307.19 205.38 334.26 234.06 351.95 C 259.09 367.44 288.52 375.96 318.00 375.51 C 345.68 375.77 373.30 368.09 397.20 354.19 C 423.50 339.00 445.13 315.99 458.96 288.96 C 481.36 245.46 481.94 191.56 460.38 147.62 C 446.34 118.49 423.14 93.91 394.92 78.14 C 367.90 62.87 336.32 56.15 305.41 58.48 M 143.35 336.41 C 130.82 339.02 119.34 346.62 112.29 357.34 C 103.56 370.03 101.32 386.90 106.49 401.42 C 110.89 414.32 120.83 425.19 133.31 430.70 C 141.99 434.69 151.84 435.69 161.25 434.37 C 176.26 432.16 189.93 422.50 197.14 409.17 C 203.14 398.32 204.91 385.20 201.85 373.18 C 198.63 360.09 189.91 348.41 178.09 341.86 C 167.70 335.79 155.09 334.11 143.35 336.41 M 55.37 391.45 C 45.22 392.53 36.53 400.97 34.89 411.00 C 33.12 420.34 37.56 430.40 45.64 435.40 C 52.86 440.06 62.61 440.31 70.07 436.09 C 76.17 432.78 80.59 426.65 81.88 419.84 C 83.69 411.32 80.32 401.94 73.47 396.55 C 68.46 392.48 61.77 390.60 55.37 391.45 Z" />
</g>
<g id="#ffffffff">
<path fill="#ffffff" opacity="1.00" d=" M 362.40 86.60 C 373.97 84.87 384.85 90.66 394.13 96.90 C 401.57 101.97 408.64 107.63 415.31 113.68 C 428.68 128.25 441.78 144.60 445.60 164.52 C 447.74 174.53 443.84 184.86 437.63 192.65 C 435.34 195.45 431.60 196.99 428.01 196.43 C 423.15 195.75 419.16 192.55 415.66 189.35 C 412.22 186.18 410.62 181.68 408.20 177.80 C 397.51 159.88 381.08 146.06 363.03 135.95 C 353.33 131.27 344.86 123.68 340.05 113.96 C 337.60 108.74 337.24 101.86 341.32 97.33 C 346.76 91.40 354.56 87.98 362.40 86.60 Z" />
<path fill="#ffffff" opacity="1.00" d=" M 166.43 344.55 C 170.90 343.32 175.20 345.80 178.70 348.31 C 184.95 352.75 190.30 358.82 193.02 366.06 C 194.68 370.21 193.87 375.47 190.37 378.44 C 187.15 380.02 184.10 376.95 182.63 374.35 C 179.26 368.25 174.00 363.41 167.93 360.07 C 164.13 357.97 160.06 354.75 159.84 350.05 C 160.41 346.92 163.67 345.34 166.43 344.55 Z" />
<path fill="#ffffff" opacity="1.00" d=" M 61.38 399.00 C 61.32 395.95 65.47 394.79 67.83 395.90 C 72.41 398.12 76.50 402.17 77.77 407.20 C 78.43 409.55 76.74 411.44 75.09 412.85 C 72.23 410.06 70.22 406.42 66.82 404.22 C 64.83 402.71 62.20 401.55 61.38 399.00 Z" />
<path fill="#ffffff" opacity="1.00" d=" M 464.24 410.14 C 480.14 407.32 496.17 405.28 512.00 402.11 L 512.00 512.00 L 0.00 512.00 L 0.00 485.81 C 49.39 477.35 98.97 470.00 148.32 461.31 C 159.75 461.60 171.13 459.81 181.91 455.98 C 276.05 440.86 370.12 425.36 464.24 410.14 Z" />
</g>
<g id="#cf7401ff">
<path fill="#cf7401" opacity="1.00" d=" M 497.75 354.04 C 502.50 353.80 507.27 353.86 512.00 353.31 L 512.00 402.11 C 496.17 405.28 480.14 407.32 464.24 410.14 C 370.12 425.36 276.05 440.86 181.91 455.98 C 195.95 449.75 208.57 439.96 216.95 426.98 C 226.26 413.19 230.32 396.29 229.41 379.76 C 234.80 382.34 240.13 385.04 245.65 387.36 C 277.87 401.13 314.06 405.01 348.57 399.28 C 381.27 393.83 412.16 379.10 437.49 357.81 C 442.94 357.87 448.39 357.45 453.83 357.11 C 457.49 356.96 461.13 356.55 464.78 356.31 C 472.13 356.17 479.42 355.18 486.77 355.03 C 490.45 354.98 494.10 354.43 497.75 354.04 Z" />
<path fill="#cf7401" opacity="1.00" d=" M 2.81 386.42 C 7.92 386.12 13.02 385.83 18.11 385.40 C 11.20 394.68 7.71 406.42 8.43 417.98 C 9.16 435.60 20.21 452.22 35.98 460.01 C 45.81 465.22 57.34 465.98 68.17 464.36 C 82.03 461.80 94.18 452.80 101.56 440.90 C 107.29 445.45 113.05 450.10 119.70 453.26 C 128.61 457.80 138.46 460.00 148.32 461.31 C 98.97 470.00 49.39 477.35 0.00 485.81 L 0.00 386.59 C 0.70 386.54 2.11 386.46 2.81 386.42 Z" />
</g>
</svg>
