<?xml version="1.0" encoding="UTF-8" ?>
<!DOCTYPE svg PUBLIC "-//W3C//DTD SVG 1.1//EN" "http://www.w3.org/Graphics/SVG/1.1/DTD/svg11.dtd">
<svg width="291pt" height="284pt" viewBox="0 0 291 284" version="1.1" xmlns="http://www.w3.org/2000/svg">
<g id="#e97500ff">
<path fill="#e97500" opacity="1.00" d=" M 240.32 0.00 L 247.82 0.00 C 250.76 1.12 253.75 2.92 254.98 5.98 C 256.31 9.50 256.37 13.33 256.95 17.01 C 266.18 89.00 275.89 160.94 285.32 232.91 C 285.75 237.19 287.01 241.54 286.13 245.84 C 285.04 249.94 281.19 252.87 277.01 253.23 C 203.30 263.08 129.58 272.88 55.84 282.54 C 53.45 282.84 51.08 283.33 48.76 284.00 L 42.13 284.00 C 37.94 283.14 34.34 279.88 33.63 275.57 C 23.47 197.99 13.15 120.41 2.96 42.82 C 1.87 37.15 6.20 31.29 11.99 30.84 C 82.92 21.23 153.91 11.98 224.87 2.58 C 230.03 1.83 235.30 1.53 240.32 0.00 M 91.55 52.02 C 91.53 52.99 91.51 53.96 91.50 54.92 C 91.01 55.15 90.03 55.62 89.54 55.85 C 89.47 94.90 89.44 133.96 89.56 173.02 C 102.54 173.08 115.52 173.06 128.50 173.03 C 128.46 172.28 128.39 170.77 128.36 170.02 C 128.88 170.02 129.93 170.02 130.46 170.01 C 130.53 164.68 130.55 159.34 130.44 154.01 C 122.91 153.95 115.38 154.06 107.86 153.97 C 107.77 119.99 107.84 86.02 107.82 52.05 C 102.40 51.97 96.97 51.97 91.55 52.02 M 174.33 52.09 C 174.33 52.78 174.34 54.14 174.35 54.83 C 173.88 54.94 172.94 55.18 172.47 55.29 C 172.18 83.51 172.48 111.76 172.33 139.98 C 172.29 143.75 171.76 147.49 171.24 151.21 C 167.17 154.98 160.58 154.71 155.95 152.17 C 151.71 149.30 151.93 143.52 151.65 138.99 C 151.58 110.42 151.66 81.85 151.62 53.28 C 146.17 53.28 140.73 53.27 135.29 53.36 C 135.29 54.01 135.29 55.31 135.29 55.96 C 132.84 55.85 133.35 58.30 133.26 59.96 C 133.33 86.99 133.25 114.02 133.31 141.05 C 133.46 149.77 134.68 159.41 141.08 165.92 C 147.39 172.52 157.29 173.91 165.95 172.63 C 172.51 171.62 179.37 168.66 182.94 162.79 C 189.28 155.88 190.84 146.10 190.88 137.06 C 190.88 108.72 190.88 80.38 190.88 52.04 C 185.36 51.98 179.84 51.92 174.33 52.09 M 62.79 58.82 C 56.67 62.63 52.25 68.61 49.01 74.94 C 44.24 81.86 42.30 90.31 41.33 98.54 C 40.24 109.79 40.26 121.18 41.73 132.39 C 43.08 143.01 47.43 153.37 54.67 161.33 C 61.20 168.48 70.58 172.30 79.99 173.80 C 80.05 172.98 80.16 171.33 80.22 170.51 C 80.64 170.61 81.49 170.81 81.91 170.91 C 82.12 165.45 82.09 159.99 81.93 154.53 C 75.86 153.43 71.48 148.76 68.01 144.00 C 60.56 134.02 59.07 121.05 59.25 108.95 C 59.49 97.60 61.49 85.36 69.55 76.77 C 71.93 75.45 74.08 73.72 76.64 72.74 C 78.38 71.92 81.29 71.67 80.49 69.01 C 81.77 68.85 82.40 68.17 82.39 66.96 C 82.47 62.09 82.34 57.21 82.31 52.34 C 75.48 53.25 68.64 55.08 62.79 58.82 M 200.60 53.02 C 200.60 53.77 200.59 55.26 200.58 56.01 C 200.08 56.01 199.09 56.01 198.59 56.01 C 198.56 95.01 198.50 134.01 198.62 173.01 C 207.74 173.05 217.06 173.52 225.92 170.95 C 230.61 169.55 235.46 167.21 237.99 162.79 C 245.80 154.23 248.80 141.92 247.27 130.59 C 246.30 123.17 242.12 116.74 237.29 111.23 C 240.89 106.54 243.80 101.06 244.04 95.04 C 245.06 82.80 239.01 70.97 230.40 62.61 C 222.52 55.13 211.31 51.95 200.60 53.02 M 42.66 174.93 C 42.64 176.28 42.63 177.64 42.62 178.99 C 42.12 179.00 41.13 179.02 40.63 179.03 C 40.61 192.71 40.53 206.39 40.67 220.07 C 46.32 220.61 53.26 218.80 55.13 212.74 C 57.93 208.69 59.98 203.99 60.14 199.00 C 60.58 191.86 60.23 183.56 54.72 178.27 C 51.59 175.05 46.85 174.86 42.66 174.93 M 62.58 175.02 C 62.57 176.35 62.55 177.67 62.55 179.00 C 62.05 179.00 61.06 179.00 60.56 179.00 C 60.66 192.66 60.45 206.32 60.59 219.98 C 65.00 220.03 69.40 220.05 73.80 219.93 C 73.79 218.61 73.78 217.30 73.78 215.98 C 74.26 215.99 75.24 215.99 75.72 215.99 C 75.74 214.02 75.76 212.05 75.79 210.09 C 73.19 210.05 70.60 209.95 68.00 209.96 C 68.01 207.64 67.98 205.32 67.99 203.01 C 68.72 203.00 70.19 202.99 70.93 202.98 C 70.92 201.64 70.92 200.29 70.93 198.95 C 71.42 198.93 72.41 198.88 72.90 198.86 C 72.89 196.96 72.90 195.06 72.92 193.17 C 71.27 193.06 69.63 192.96 67.99 192.87 C 68.03 190.24 67.95 187.62 67.99 185.00 C 69.75 184.99 71.50 184.99 73.25 185.00 C 73.22 183.66 73.20 182.32 73.19 180.98 C 73.70 180.97 74.73 180.95 75.25 180.94 C 75.24 178.97 75.23 177.00 75.22 175.04 C 71.01 174.97 66.79 174.97 62.58 175.02 M 88.62 174.83 C 88.58 176.22 88.56 177.61 88.55 179.00 C 88.05 179.00 87.06 179.01 86.56 179.01 C 86.54 192.69 86.46 206.36 86.60 220.04 C 91.95 220.27 99.32 220.18 101.29 213.97 C 103.12 210.60 104.93 206.93 104.44 202.97 C 104.30 200.10 102.22 197.86 101.50 195.19 C 102.46 192.26 103.96 189.21 102.95 186.06 C 101.59 179.48 95.47 174.30 88.62 174.83 M 107.58 175.02 C 107.56 176.35 107.55 177.67 107.55 179.00 C 107.05 179.00 106.06 179.01 105.56 179.01 C 105.53 192.67 105.47 206.32 105.59 219.98 C 109.95 220.03 114.32 220.04 118.68 219.94 C 118.79 218.64 118.93 217.34 119.10 216.05 L 120.52 216.07 C 120.74 214.05 120.65 212.03 120.76 210.01 C 118.17 210.01 115.59 209.98 113.01 209.98 C 113.01 207.65 112.97 205.33 112.99 203.00 C 113.72 203.00 115.19 202.99 115.93 202.99 C 115.92 201.64 115.92 200.30 115.93 198.95 C 116.42 198.93 117.41 198.88 117.90 198.86 C 117.89 196.96 117.90 195.06 117.92 193.17 C 116.27 193.06 114.63 192.96 112.99 192.87 C 113.03 190.24 112.95 187.62 112.99 185.00 C 114.74 184.99 116.50 184.99 118.25 185.01 C 118.22 183.66 118.20 182.32 118.19 180.98 C 118.71 180.97 119.73 180.95 120.25 180.94 C 120.24 178.97 120.23 177.00 120.22 175.04 C 116.01 174.97 111.79 174.97 107.58 175.02 M 123.39 175.07 C 123.39 176.32 123.38 177.56 123.39 178.81 C 122.92 178.93 121.98 179.19 121.51 179.31 C 121.20 192.84 121.50 206.40 121.37 219.94 C 123.24 219.97 125.12 219.99 127.00 220.02 C 126.99 218.68 126.98 217.35 126.99 216.02 C 127.48 216.04 128.45 216.07 128.94 216.09 C 129.01 211.96 129.04 207.84 129.06 203.71 C 131.27 209.03 133.52 214.35 135.46 219.79 C 136.73 219.85 137.99 219.95 139.26 220.11 C 139.25 218.81 138.99 217.58 138.48 216.43 C 139.04 216.31 140.17 216.07 140.73 215.95 C 141.48 202.53 140.86 189.02 141.03 175.57 C 139.21 175.56 137.39 175.56 135.58 175.55 C 135.54 177.03 135.52 178.51 135.52 180.00 C 135.04 179.83 134.08 179.50 133.60 179.33 C 133.56 183.60 133.25 187.91 133.81 192.16 C 131.43 186.45 129.30 180.64 126.85 174.96 C 125.69 175.00 124.54 175.03 123.39 175.07 M 145.58 175.02 C 145.56 176.35 145.55 177.67 145.55 179.00 C 145.05 179.00 144.06 179.01 143.56 179.01 C 143.53 192.67 143.47 206.32 143.59 219.98 C 147.95 220.03 152.32 220.04 156.68 219.94 C 156.79 218.64 156.93 217.34 157.11 216.05 L 158.53 216.07 C 158.73 214.05 158.65 212.03 158.76 210.01 C 156.17 210.01 153.59 209.98 151.01 209.98 C 151.01 207.65 150.97 205.33 150.99 203.01 C 151.72 203.00 153.19 202.99 153.93 202.98 C 153.92 201.64 153.92 200.29 153.93 198.95 C 154.42 198.93 155.41 198.88 155.90 198.86 C 155.89 196.96 155.89 195.06 155.92 193.17 C 154.27 193.06 152.63 192.97 150.99 192.87 C 151.03 190.24 150.95 187.62 150.99 185.00 C 152.74 184.99 154.50 184.99 156.25 185.01 C 156.22 183.66 156.20 182.32 156.19 180.98 C 156.70 180.97 157.73 180.95 158.25 180.94 C 158.24 178.97 158.23 177.00 158.22 175.04 C 154.01 174.97 149.79 174.97 145.58 175.02 M 161.58 175.02 C 161.56 176.34 161.55 177.67 161.55 179.00 C 161.05 179.00 160.06 179.01 159.56 179.01 C 159.53 192.68 159.46 206.35 159.60 220.02 C 161.41 220.00 163.23 219.99 165.04 219.99 C 165.00 218.66 164.96 217.33 164.94 216.00 C 165.45 216.02 166.47 216.06 166.98 216.08 C 167.02 211.72 167.00 207.36 167.00 203.00 C 167.73 203.00 169.19 202.99 169.93 202.99 C 169.92 201.64 169.92 200.29 169.93 198.95 C 170.42 198.93 171.41 198.88 171.90 198.86 C 171.89 196.96 171.89 195.06 171.92 193.17 C 170.27 193.06 168.63 192.96 166.99 192.87 C 167.03 190.24 166.95 187.62 166.99 185.00 C 168.74 184.99 170.50 184.99 172.25 185.01 C 172.22 183.66 172.20 182.32 172.19 180.98 C 172.70 180.97 173.73 180.95 174.25 180.94 C 174.24 178.97 174.23 177.00 174.22 175.04 C 170.01 174.97 165.79 174.97 161.58 175.02 M 177.59 174.99 C 177.57 176.32 177.56 177.66 177.55 179.00 C 177.05 179.00 176.06 179.01 175.56 179.01 C 175.53 192.68 175.46 206.35 175.60 220.02 C 177.41 220.00 179.23 219.99 181.04 219.99 C 181.00 218.66 180.96 217.33 180.94 216.00 C 181.45 216.02 182.46 216.06 182.97 216.08 C 183.03 202.39 183.01 188.69 182.98 174.99 C 181.18 175.00 179.38 175.00 177.59 174.99 M 187.73 185.84 C 185.84 188.85 185.05 192.39 185.00 195.91 C 184.80 201.89 184.79 208.44 188.47 213.49 C 190.61 216.87 194.48 218.41 198.18 219.37 C 198.19 217.84 198.22 216.32 198.26 214.81 C 198.76 214.94 199.76 215.20 200.26 215.33 C 200.11 213.69 200.56 211.91 199.85 210.37 C 197.69 208.19 194.95 206.33 193.88 203.31 C 192.22 198.70 192.17 193.63 193.02 188.84 C 194.56 186.23 198.87 184.96 198.21 181.52 C 200.90 180.28 200.53 177.34 200.47 174.84 C 194.32 175.44 189.41 180.00 187.73 185.84 M 203.59 174.99 C 203.57 176.32 203.56 177.66 203.55 179.00 C 203.05 179.00 202.06 179.01 201.56 179.01 C 201.53 192.68 201.46 206.35 201.60 220.02 C 203.41 220.00 205.22 219.99 207.04 219.99 C 207.00 218.66 206.96 217.33 206.94 216.00 C 207.45 216.02 208.47 216.06 208.97 216.08 C 209.03 202.39 209.01 188.69 208.98 175.00 C 207.18 175.00 205.38 175.00 203.59 174.99 M 220.56 175.53 C 217.02 176.86 215.16 180.49 213.85 183.81 C 209.45 191.69 209.46 201.47 211.99 209.96 C 213.28 214.19 216.41 218.55 221.14 219.02 C 225.42 219.30 228.89 215.76 230.27 211.99 C 235.02 205.00 235.38 196.15 234.70 188.00 C 236.61 195.24 240.25 202.36 239.17 210.06 C 238.91 210.53 238.39 211.48 238.13 211.96 C 237.44 213.24 236.71 214.51 235.96 215.76 C 237.43 217.18 238.89 218.62 240.34 220.06 C 241.79 218.21 243.15 216.29 244.04 214.10 C 246.52 210.24 247.82 205.58 247.57 200.99 C 246.93 195.41 244.12 190.38 243.18 184.86 C 242.75 182.16 244.05 179.62 244.92 177.14 C 243.29 176.40 241.68 175.64 240.06 174.90 C 238.82 177.05 237.56 179.23 236.88 181.64 C 235.78 183.35 235.04 185.27 234.53 187.24 C 233.44 183.97 232.29 180.58 230.02 177.92 C 227.75 175.28 223.81 174.19 220.56 175.53 Z" />
<path fill="#e97500" opacity="1.00" d=" M 217.00 75.03 C 224.83 80.64 228.82 90.94 226.27 100.32 C 224.24 103.75 220.51 105.56 216.73 106.35 C 216.70 95.91 216.23 85.43 217.00 75.03 Z" />
<path fill="#e97500" opacity="1.00" d=" M 216.71 122.24 C 220.97 123.96 224.94 126.77 226.98 131.01 C 229.84 136.03 228.98 141.99 228.25 147.45 C 226.29 151.90 221.32 153.92 216.68 153.73 C 216.60 143.23 216.55 132.73 216.71 122.24 Z" />
<path fill="#e97500" opacity="1.00" d=" M 218.84 185.38 C 221.24 185.06 224.26 184.84 225.44 187.50 C 228.35 194.02 227.44 201.47 226.42 208.33 C 224.63 209.44 222.33 210.26 221.00 208.03 C 216.70 201.36 217.82 192.85 218.84 185.38 Z" />
<path fill="#e97500" opacity="1.00" d=" M 48.26 185.32 C 54.16 190.69 53.27 199.22 52.57 206.39 C 51.12 207.63 49.67 208.88 48.15 210.04 C 47.95 201.81 47.78 193.55 48.26 185.32 Z" />
<path fill="#e97500" opacity="1.00" d=" M 94.14 186.63 C 94.88 188.35 95.69 190.04 96.38 191.78 C 95.81 192.28 94.68 193.30 94.11 193.80 C 93.95 191.41 94.05 189.02 94.14 186.63 Z" />
<path fill="#e97500" opacity="1.00" d=" M 94.29 202.31 C 95.48 204.30 96.62 206.31 97.74 208.34 C 96.50 208.87 95.25 209.33 93.96 209.74 C 94.00 207.26 94.03 204.78 94.29 202.31 Z" />
</g>
<g id="#ffffffff">
<path fill="#ffffff" opacity="1.00" d=" M 91.55 52.02 C 96.97 51.97 102.40 51.97 107.82 52.05 C 107.84 86.02 107.77 119.99 107.86 153.97 C 115.38 154.06 122.91 153.95 130.44 154.01 C 130.55 159.34 130.53 164.68 130.46 170.01 C 129.93 170.02 128.88 170.02 128.36 170.02 C 116.07 170.00 103.78 170.12 91.49 169.95 C 91.52 131.61 91.50 93.27 91.50 54.92 C 91.51 53.96 91.53 52.99 91.55 52.02 Z" />
<path fill="#ffffff" opacity="1.00" d=" M 174.33 52.09 C 179.84 51.92 185.36 51.98 190.88 52.04 C 190.88 80.38 190.88 108.72 190.88 137.06 C 190.84 146.10 189.28 155.88 182.94 162.79 C 175.12 169.66 163.86 171.42 153.93 169.05 C 147.74 167.54 142.22 163.38 139.29 157.70 C 136.01 151.36 135.37 144.07 135.31 137.05 C 135.29 110.02 135.34 82.99 135.29 55.96 C 135.29 55.31 135.29 54.01 135.29 53.36 C 140.73 53.27 146.17 53.28 151.62 53.28 C 151.66 81.85 151.58 110.42 151.65 138.99 C 151.93 143.52 151.71 149.30 155.95 152.17 C 160.58 154.71 167.17 154.98 171.24 151.21 C 174.75 145.83 174.27 139.13 174.38 133.00 C 174.34 106.94 174.40 80.88 174.35 54.83 C 174.34 54.14 174.33 52.78 174.33 52.09 Z" />
<path fill="#ffffff" opacity="1.00" d=" M 62.79 58.82 C 68.64 55.08 75.48 53.25 82.31 52.34 C 82.34 57.21 82.47 62.09 82.39 66.96 C 82.40 68.17 81.77 68.85 80.49 69.01 C 76.03 70.20 72.42 73.25 69.55 76.77 C 61.49 85.36 59.49 97.60 59.25 108.95 C 59.07 121.05 60.56 134.02 68.01 144.00 C 71.48 148.76 75.86 153.43 81.93 154.53 C 82.09 159.99 82.12 165.45 81.91 170.91 C 81.49 170.81 80.64 170.61 80.22 170.51 C 70.76 168.65 61.43 164.36 55.28 156.71 C 48.88 148.98 45.02 139.33 43.74 129.41 C 42.24 117.76 42.19 105.92 43.50 94.24 C 44.25 87.55 46.17 81.03 49.01 74.94 C 52.25 68.61 56.67 62.63 62.79 58.82 Z" />
<path fill="#ffffff" opacity="1.00" d=" M 200.60 53.02 C 211.31 51.95 222.52 55.13 230.40 62.61 C 239.01 70.97 245.06 82.80 244.04 95.04 C 243.80 101.06 240.89 106.54 237.29 111.23 C 242.12 116.74 246.30 123.17 247.27 130.59 C 248.80 141.92 245.80 154.23 237.99 162.79 C 227.42 171.05 213.23 170.02 200.59 169.99 C 200.54 132.00 200.57 94.00 200.58 56.01 C 200.59 55.26 200.60 53.77 200.60 53.02 M 216.81 71.71 C 216.71 72.42 216.52 73.84 216.42 74.55 L 217.00 75.03 C 216.23 85.43 216.70 95.91 216.73 106.35 C 220.51 105.56 224.24 103.75 226.27 100.32 C 229.51 95.10 230.05 88.23 227.31 82.68 C 225.10 78.11 222.37 72.65 216.81 71.71 M 216.63 118.94 C 216.66 120.04 216.68 121.14 216.71 122.24 C 216.55 132.73 216.60 143.23 216.68 153.73 C 221.32 153.92 226.29 151.90 228.25 147.45 C 230.59 143.73 231.21 139.21 230.98 134.91 C 230.49 127.18 224.42 120.03 216.63 118.94 Z" />
<path fill="#ffffff" opacity="1.00" d=" M 42.66 174.93 C 46.85 174.86 51.59 175.05 54.72 178.27 C 60.23 183.56 60.58 191.86 60.14 199.00 C 59.98 203.99 57.93 208.69 55.13 212.74 C 51.55 215.46 47.07 216.31 42.65 216.10 C 42.55 203.73 42.62 191.36 42.62 178.99 C 42.63 177.64 42.64 176.28 42.66 174.93 M 47.98 180.69 C 48.06 182.22 47.80 183.82 48.26 185.32 C 47.78 193.55 47.95 201.81 48.15 210.04 C 49.67 208.88 51.12 207.63 52.57 206.39 C 55.76 200.19 55.79 192.71 53.81 186.14 C 53.00 183.36 50.57 181.64 47.98 180.69 Z" />
<path fill="#ffffff" opacity="1.00" d=" M 62.58 175.02 C 66.79 174.97 71.01 174.97 75.22 175.04 C 75.23 177.00 75.24 178.97 75.25 180.94 C 74.73 180.95 73.70 180.97 73.19 180.98 C 71.45 180.98 69.72 180.99 67.99 181.03 C 68.00 182.35 68.00 183.67 67.99 185.00 C 67.95 187.62 68.03 190.24 67.99 192.87 C 69.63 192.96 71.27 193.06 72.92 193.17 C 72.90 195.06 72.89 196.96 72.90 198.86 C 72.41 198.88 71.42 198.93 70.93 198.95 C 70.20 198.99 68.73 199.05 68.00 199.08 C 68.00 200.39 67.99 201.70 67.99 203.01 C 67.98 205.32 68.01 207.64 68.00 209.96 C 70.60 209.95 73.19 210.05 75.79 210.09 C 75.76 212.05 75.74 214.02 75.72 215.99 C 75.24 215.99 74.26 215.99 73.78 215.98 C 70.04 216.04 66.30 215.97 62.56 215.99 C 62.51 203.66 62.54 191.33 62.55 179.00 C 62.55 177.67 62.57 176.35 62.58 175.02 Z" />
<path fill="#ffffff" opacity="1.00" d=" M 88.62 174.83 C 95.47 174.30 101.59 179.48 102.95 186.06 C 103.96 189.21 102.46 192.26 101.50 195.19 C 102.22 197.86 104.30 200.10 104.44 202.97 C 104.93 206.93 103.12 210.60 101.29 213.97 C 97.29 215.75 92.92 216.25 88.58 216.06 C 88.49 203.71 88.55 191.35 88.55 179.00 C 88.56 177.61 88.58 176.22 88.62 174.83 M 94.07 181.54 C 94.03 183.23 93.88 184.95 94.14 186.63 C 94.05 189.02 93.95 191.41 94.11 193.80 C 94.68 193.30 95.81 192.28 96.38 191.78 L 96.79 192.73 C 99.12 188.97 98.29 183.52 94.07 181.54 M 94.01 197.65 C 94.10 199.19 93.73 200.83 94.29 202.31 C 94.03 204.78 94.00 207.26 93.96 209.74 C 95.25 209.33 96.50 208.87 97.74 208.34 C 99.88 204.48 99.00 198.58 94.01 197.65 Z" />
<path fill="#ffffff" opacity="1.00" d=" M 107.58 175.02 C 111.79 174.97 116.01 174.97 120.22 175.04 C 120.23 177.00 120.24 178.97 120.25 180.94 C 119.73 180.95 118.71 180.97 118.19 180.98 C 116.46 180.98 114.72 180.99 112.99 181.03 C 113.00 182.35 113.00 183.67 112.99 185.00 C 112.95 187.62 113.03 190.24 112.99 192.87 C 114.63 192.96 116.27 193.06 117.92 193.17 C 117.90 195.06 117.89 196.96 117.90 198.86 C 117.41 198.88 116.42 198.93 115.93 198.95 C 115.20 198.99 113.73 199.05 113.00 199.08 C 113.00 200.39 112.99 201.69 112.99 203.00 C 112.97 205.33 113.01 207.65 113.01 209.98 C 115.59 209.98 118.17 210.01 120.76 210.01 C 120.65 212.03 120.74 214.05 120.52 216.07 L 119.10 216.05 C 115.26 216.00 111.41 215.99 107.56 215.98 C 107.51 203.65 107.54 191.32 107.55 179.00 C 107.55 177.67 107.56 176.35 107.58 175.02 Z" />
<path fill="#ffffff" opacity="1.00" d=" M 123.39 175.07 C 124.54 175.03 125.69 175.00 126.85 174.96 C 129.30 180.64 131.43 186.45 133.81 192.16 C 134.32 193.55 134.88 194.92 135.44 196.29 C 135.60 190.86 135.56 185.43 135.52 180.00 C 135.52 178.51 135.54 177.03 135.58 175.55 C 137.39 175.56 139.21 175.56 141.03 175.57 C 140.86 189.02 141.48 202.53 140.73 215.95 C 140.17 216.07 139.04 216.31 138.48 216.43 C 134.34 209.64 132.50 201.76 129.06 194.63 C 128.97 197.65 128.96 200.68 129.06 203.71 C 129.04 207.84 129.01 211.96 128.94 216.09 C 128.45 216.07 127.48 216.04 126.99 216.02 C 125.78 215.97 124.57 215.93 123.37 215.89 C 123.43 203.53 123.40 191.17 123.39 178.81 C 123.38 177.56 123.39 176.32 123.39 175.07 Z" />
<path fill="#ffffff" opacity="1.00" d=" M 145.58 175.02 C 149.79 174.97 154.01 174.97 158.22 175.04 C 158.23 177.00 158.24 178.97 158.25 180.94 C 157.73 180.95 156.70 180.97 156.19 180.98 C 154.45 180.98 152.72 180.99 150.99 181.03 C 151.00 182.35 151.00 183.67 150.99 185.00 C 150.95 187.62 151.03 190.24 150.99 192.87 C 152.63 192.97 154.27 193.06 155.92 193.17 C 155.89 195.06 155.89 196.96 155.90 198.86 C 155.41 198.88 154.42 198.93 153.93 198.95 C 153.20 198.99 151.73 199.05 151.00 199.09 C 151.00 200.39 150.99 201.70 150.99 203.01 C 150.97 205.33 151.01 207.65 151.01 209.98 C 153.59 209.98 156.17 210.01 158.76 210.01 C 158.65 212.03 158.73 214.05 158.53 216.07 L 157.11 216.05 C 153.26 216.00 149.41 215.99 145.56 215.98 C 145.51 203.65 145.54 191.32 145.55 179.00 C 145.55 177.67 145.56 176.35 145.58 175.02 Z" />
<path fill="#ffffff" opacity="1.00" d=" M 161.58 175.02 C 165.79 174.97 170.01 174.97 174.22 175.04 C 174.23 177.00 174.24 178.97 174.25 180.94 C 173.73 180.95 172.70 180.97 172.19 180.98 C 170.45 180.98 168.72 180.99 166.99 181.04 C 167.00 182.35 167.00 183.67 166.99 185.00 C 166.95 187.62 167.03 190.24 166.99 192.87 C 168.63 192.96 170.27 193.06 171.92 193.17 C 171.89 195.06 171.89 196.96 171.90 198.86 C 171.41 198.88 170.42 198.93 169.93 198.95 C 169.20 198.99 167.73 199.05 166.99 199.09 C 166.99 200.39 166.99 201.70 167.00 203.00 C 167.00 207.36 167.02 211.72 166.98 216.08 C 166.47 216.06 165.45 216.02 164.94 216.00 C 164.09 215.99 162.40 215.95 161.56 215.94 C 161.52 203.62 161.54 191.31 161.55 179.00 C 161.55 177.67 161.56 176.34 161.58 175.02 Z" />
<path fill="#ffffff" opacity="1.00" d=" M 177.59 174.99 C 179.38 175.00 181.18 175.00 182.98 174.99 C 183.01 188.69 183.03 202.39 182.97 216.08 C 182.46 216.06 181.45 216.02 180.94 216.00 C 180.09 215.99 178.40 215.95 177.56 215.94 C 177.52 203.63 177.54 191.31 177.55 179.00 C 177.56 177.66 177.57 176.32 177.59 174.99 Z" />
<path fill="#ffffff" opacity="1.00" d=" M 187.73 185.84 C 189.41 180.00 194.32 175.44 200.47 174.84 C 200.53 177.34 200.90 180.28 198.21 181.52 C 195.66 183.28 193.96 185.92 193.02 188.84 C 192.17 193.63 192.22 198.70 193.88 203.31 C 194.95 206.33 197.69 208.19 199.85 210.37 C 200.56 211.91 200.11 213.69 200.26 215.33 C 199.76 215.20 198.76 214.94 198.26 214.81 C 192.83 213.46 188.87 208.71 187.72 203.35 C 186.52 197.60 186.80 191.61 187.73 185.84 Z" />
<path fill="#ffffff" opacity="1.00" d=" M 203.59 174.99 C 205.38 175.00 207.18 175.00 208.98 175.00 C 209.01 188.69 209.03 202.39 208.97 216.08 C 208.47 216.06 207.45 216.02 206.94 216.00 C 206.10 215.99 204.40 215.95 203.56 215.94 C 203.52 203.63 203.54 191.31 203.55 179.00 C 203.56 177.66 203.57 176.32 203.59 174.99 Z" />
<path fill="#ffffff" opacity="1.00" d=" M 220.56 175.53 C 223.81 174.19 227.75 175.28 230.02 177.92 C 232.29 180.58 233.44 183.97 234.53 187.24 L 234.70 188.00 C 235.38 196.15 235.02 205.00 230.27 211.99 C 228.17 213.45 225.92 215.23 223.20 215.03 C 219.06 214.65 216.00 211.11 214.56 207.44 C 211.64 199.94 211.76 191.51 213.85 183.81 C 215.16 180.49 217.02 176.86 220.56 175.53 M 218.84 185.38 C 217.82 192.85 216.70 201.36 221.00 208.03 C 222.33 210.26 224.63 209.44 226.42 208.33 C 229.85 201.52 230.09 193.54 228.50 186.20 C 228.10 184.02 226.77 182.01 224.75 181.03 C 221.78 180.33 220.19 183.33 218.84 185.38 Z" />
<path fill="#ffffff" opacity="1.00" d=" M 240.06 174.90 C 241.68 175.64 243.29 176.40 244.92 177.14 C 244.05 179.62 242.75 182.16 243.18 184.86 C 244.12 190.38 246.93 195.41 247.57 200.99 C 247.82 205.58 246.52 210.24 244.04 214.10 C 243.46 214.73 242.87 215.34 242.27 215.95 C 240.90 214.61 239.52 213.27 238.13 211.96 C 238.39 211.48 238.91 210.53 239.17 210.06 C 240.91 207.03 241.89 203.49 241.24 199.99 C 240.18 193.78 237.30 187.99 236.88 181.64 C 237.56 179.23 238.82 177.05 240.06 174.90 Z" />
</g>
<g id="#011881ff">
<path fill="#011881" opacity="1.00" d=" M 89.54 55.85 C 90.03 55.62 91.01 55.15 91.50 54.92 C 91.50 93.27 91.52 131.61 91.49 169.95 C 103.78 170.12 116.07 170.00 128.36 170.02 C 128.39 170.77 128.46 172.28 128.50 173.03 C 115.52 173.06 102.54 173.08 89.56 173.02 C 89.44 133.96 89.47 94.90 89.54 55.85 Z" />
<path fill="#011881" opacity="1.00" d=" M 172.47 55.29 C 172.94 55.18 173.88 54.94 174.35 54.83 C 174.40 80.88 174.34 106.94 174.38 133.00 C 174.27 139.13 174.75 145.83 171.24 151.21 C 171.76 147.49 172.29 143.75 172.33 139.98 C 172.48 111.76 172.18 83.51 172.47 55.29 Z" />
<path fill="#011881" opacity="1.00" d=" M 133.26 59.96 C 133.35 58.30 132.84 55.85 135.29 55.96 C 135.34 82.99 135.29 110.02 135.31 137.05 C 135.37 144.07 136.01 151.36 139.29 157.70 C 142.22 163.38 147.74 167.54 153.93 169.05 C 163.86 171.42 175.12 169.66 182.94 162.79 C 179.37 168.66 172.51 171.62 165.95 172.63 C 157.29 173.91 147.39 172.52 141.08 165.92 C 134.68 159.41 133.46 149.77 133.31 141.05 C 133.25 114.02 133.33 86.99 133.26 59.96 Z" />
<path fill="#011881" opacity="1.00" d=" M 198.59 56.01 C 199.09 56.01 200.08 56.01 200.58 56.01 C 200.57 94.00 200.54 132.00 200.59 169.99 C 213.23 170.02 227.42 171.05 237.99 162.79 C 235.46 167.21 230.61 169.55 225.92 170.95 C 217.06 173.52 207.74 173.05 198.62 173.01 C 198.50 134.01 198.56 95.01 198.59 56.01 Z" />
<path fill="#011881" opacity="1.00" d=" M 69.55 76.77 C 72.42 73.25 76.03 70.20 80.49 69.01 C 81.29 71.67 78.38 71.92 76.64 72.74 C 74.08 73.72 71.93 75.45 69.55 76.77 Z" />
<path fill="#011881" opacity="1.00" d=" M 216.81 71.71 C 222.37 72.65 225.10 78.11 227.31 82.68 C 230.05 88.23 229.51 95.10 226.27 100.32 C 228.82 90.94 224.83 80.64 217.00 75.03 L 216.42 74.55 C 216.52 73.84 216.71 72.42 216.81 71.71 Z" />
<path fill="#011881" opacity="1.00" d=" M 41.33 98.54 C 42.30 90.31 44.24 81.86 49.01 74.94 C 46.17 81.03 44.25 87.55 43.50 94.24 C 42.19 105.92 42.24 117.76 43.74 129.41 C 45.02 139.33 48.88 148.98 55.28 156.71 C 61.43 164.36 70.76 168.65 80.22 170.51 C 80.16 171.33 80.05 172.98 79.99 173.80 C 70.58 172.30 61.20 168.48 54.67 161.33 C 47.43 153.37 43.08 143.01 41.73 132.39 C 40.26 121.18 40.24 109.79 41.33 98.54 Z" />
<path fill="#011881" opacity="1.00" d=" M 216.63 118.94 C 224.42 120.03 230.49 127.18 230.98 134.91 C 231.21 139.21 230.59 143.73 228.25 147.45 C 228.98 141.99 229.84 136.03 226.98 131.01 C 224.94 126.77 220.97 123.96 216.71 122.24 C 216.68 121.14 216.66 120.04 216.63 118.94 Z" />
<path fill="#011881" opacity="1.00" d=" M 40.63 179.03 C 41.13 179.02 42.12 179.00 42.62 178.99 C 42.62 191.36 42.55 203.73 42.65 216.10 C 47.07 216.31 51.55 215.46 55.13 212.74 C 53.26 218.80 46.32 220.61 40.67 220.07 C 40.53 206.39 40.61 192.71 40.63 179.03 Z" />
<path fill="#011881" opacity="1.00" d=" M 60.56 179.00 C 61.06 179.00 62.05 179.00 62.55 179.00 C 62.54 191.33 62.51 203.66 62.56 215.99 C 66.30 215.97 70.04 216.04 73.78 215.98 C 73.78 217.30 73.79 218.61 73.80 219.93 C 69.40 220.05 65.00 220.03 60.59 219.98 C 60.45 206.32 60.66 192.66 60.56 179.00 Z" />
<path fill="#011881" opacity="1.00" d=" M 86.56 179.01 C 87.06 179.01 88.05 179.00 88.55 179.00 C 88.55 191.35 88.49 203.71 88.58 216.06 C 92.92 216.25 97.29 215.75 101.29 213.97 C 99.32 220.18 91.95 220.27 86.60 220.04 C 86.46 206.36 86.54 192.69 86.56 179.01 Z" />
<path fill="#011881" opacity="1.00" d=" M 105.56 179.01 C 106.06 179.01 107.05 179.00 107.55 179.00 C 107.54 191.32 107.51 203.65 107.56 215.98 C 111.41 215.99 115.26 216.00 119.10 216.05 C 118.93 217.34 118.79 218.64 118.68 219.94 C 114.32 220.04 109.95 220.03 105.59 219.98 C 105.47 206.32 105.53 192.67 105.56 179.01 Z" />
<path fill="#011881" opacity="1.00" d=" M 121.51 179.31 C 121.98 179.19 122.92 178.93 123.39 178.81 C 123.40 191.17 123.43 203.53 123.37 215.89 C 124.57 215.93 125.78 215.97 126.99 216.02 C 126.98 217.35 126.99 218.68 127.00 220.02 C 125.12 219.99 123.24 219.97 121.37 219.94 C 121.50 206.40 121.20 192.84 121.51 179.31 Z" />
<path fill="#011881" opacity="1.00" d=" M 143.56 179.01 C 144.06 179.01 145.05 179.00 145.55 179.00 C 145.54 191.32 145.51 203.65 145.56 215.98 C 149.41 215.99 153.26 216.00 157.11 216.05 C 156.93 217.34 156.79 218.64 156.68 219.94 C 152.32 220.04 147.95 220.03 143.59 219.98 C 143.47 206.32 143.53 192.67 143.56 179.01 Z" />
<path fill="#011881" opacity="1.00" d=" M 159.56 179.01 C 160.06 179.01 161.05 179.00 161.55 179.00 C 161.54 191.31 161.52 203.62 161.56 215.94 C 162.40 215.95 164.09 215.99 164.94 216.00 C 164.96 217.33 165.00 218.66 165.04 219.99 C 163.23 219.99 161.41 220.00 159.60 220.02 C 159.46 206.35 159.53 192.68 159.56 179.01 Z" />
<path fill="#011881" opacity="1.00" d=" M 175.56 179.01 C 176.06 179.01 177.05 179.00 177.55 179.00 C 177.54 191.31 177.52 203.63 177.56 215.94 C 178.40 215.95 180.09 215.99 180.94 216.00 C 180.96 217.33 181.00 218.66 181.04 219.99 C 179.23 219.99 177.41 220.00 175.60 220.02 C 175.46 206.35 175.53 192.68 175.56 179.01 Z" />
<path fill="#011881" opacity="1.00" d=" M 201.56 179.01 C 202.06 179.01 203.05 179.00 203.55 179.00 C 203.54 191.31 203.52 203.63 203.56 215.94 C 204.40 215.95 206.10 215.99 206.94 216.00 C 206.96 217.33 207.00 218.66 207.04 219.99 C 205.22 219.99 203.41 220.00 201.60 220.02 C 201.46 206.35 201.53 192.68 201.56 179.01 Z" />
<path fill="#011881" opacity="1.00" d=" M 133.60 179.33 C 134.08 179.50 135.04 179.83 135.52 180.00 C 135.56 185.43 135.60 190.86 135.44 196.29 C 134.88 194.92 134.32 193.55 133.81 192.16 C 133.25 187.91 133.56 183.60 133.60 179.33 Z" />
<path fill="#011881" opacity="1.00" d=" M 47.98 180.69 C 50.57 181.64 53.00 183.36 53.81 186.14 C 55.79 192.71 55.76 200.19 52.57 206.39 C 53.27 199.22 54.16 190.69 48.26 185.32 C 47.80 183.82 48.06 182.22 47.98 180.69 Z" />
<path fill="#011881" opacity="1.00" d=" M 67.99 181.03 C 69.72 180.99 71.45 180.98 73.19 180.98 C 73.20 182.32 73.22 183.66 73.25 185.00 C 71.50 184.99 69.75 184.99 67.99 185.00 C 68.00 183.67 68.00 182.35 67.99 181.03 Z" />
<path fill="#011881" opacity="1.00" d=" M 112.99 181.03 C 114.72 180.99 116.46 180.98 118.19 180.98 C 118.20 182.32 118.22 183.66 118.25 185.01 C 116.50 184.99 114.74 184.99 112.99 185.00 C 113.00 183.67 113.00 182.35 112.99 181.03 Z" />
<path fill="#011881" opacity="1.00" d=" M 150.99 181.03 C 152.72 180.99 154.45 180.98 156.19 180.98 C 156.20 182.32 156.22 183.66 156.25 185.01 C 154.50 184.99 152.74 184.99 150.99 185.00 C 151.00 183.67 151.00 182.35 150.99 181.03 Z" />
<path fill="#011881" opacity="1.00" d=" M 166.99 181.04 C 168.72 180.99 170.45 180.98 172.19 180.98 C 172.20 182.32 172.22 183.66 172.25 185.01 C 170.50 184.99 168.74 184.99 166.99 185.00 C 167.00 183.67 167.00 182.35 166.99 181.04 Z" />
<path fill="#011881" opacity="1.00" d=" M 218.84 185.38 C 220.19 183.33 221.78 180.33 224.75 181.03 C 226.77 182.01 228.10 184.02 228.50 186.20 C 230.09 193.54 229.85 201.52 226.42 208.33 C 227.44 201.47 228.35 194.02 225.44 187.50 C 224.26 184.84 221.24 185.06 218.84 185.38 Z" />
<path fill="#011881" opacity="1.00" d=" M 94.07 181.54 C 98.29 183.52 99.12 188.97 96.79 192.73 L 96.38 191.78 C 95.69 190.04 94.88 188.35 94.14 186.63 C 93.88 184.95 94.03 183.23 94.07 181.54 Z" />
<path fill="#011881" opacity="1.00" d=" M 193.02 188.84 C 193.96 185.92 195.66 183.28 198.21 181.52 C 198.87 184.96 194.56 186.23 193.02 188.84 Z" />
<path fill="#011881" opacity="1.00" d=" M 234.53 187.24 C 235.04 185.27 235.78 183.35 236.88 181.64 C 237.30 187.99 240.18 193.78 241.24 199.99 C 241.89 203.49 240.91 207.03 239.17 210.06 C 240.25 202.36 236.61 195.24 234.70 188.00 L 234.53 187.24 Z" />
<path fill="#011881" opacity="1.00" d=" M 211.99 209.96 C 209.46 201.47 209.45 191.69 213.85 183.81 C 211.76 191.51 211.64 199.94 214.56 207.44 C 216.00 211.11 219.06 214.65 223.20 215.03 C 225.92 215.23 228.17 213.45 230.27 211.99 C 228.89 215.76 225.42 219.30 221.14 219.02 C 216.41 218.55 213.28 214.19 211.99 209.96 Z" />
<path fill="#011881" opacity="1.00" d=" M 185.00 195.91 C 185.05 192.39 185.84 188.85 187.73 185.84 C 186.80 191.61 186.52 197.60 187.72 203.35 C 188.87 208.71 192.83 213.46 198.26 214.81 C 198.22 216.32 198.19 217.84 198.18 219.37 C 194.48 218.41 190.61 216.87 188.47 213.49 C 184.79 208.44 184.80 201.89 185.00 195.91 Z" />
<path fill="#011881" opacity="1.00" d=" M 129.06 194.63 C 132.50 201.76 134.34 209.64 138.48 216.43 C 138.99 217.58 139.25 218.81 139.26 220.11 C 137.99 219.95 136.73 219.85 135.46 219.79 C 133.52 214.35 131.27 209.03 129.06 203.71 C 128.96 200.68 128.97 197.65 129.06 194.63 Z" />
<path fill="#011881" opacity="1.00" d=" M 94.01 197.65 C 99.00 198.58 99.88 204.48 97.74 208.34 C 96.62 206.31 95.48 204.30 94.29 202.31 C 93.73 200.83 94.10 199.19 94.01 197.65 Z" />
<path fill="#011881" opacity="1.00" d=" M 68.00 199.08 C 68.73 199.05 70.20 198.99 70.93 198.95 C 70.92 200.29 70.92 201.64 70.93 202.98 C 70.19 202.99 68.72 203.00 67.99 203.01 C 67.99 201.70 68.00 200.39 68.00 199.08 Z" />
<path fill="#011881" opacity="1.00" d=" M 113.00 199.08 C 113.73 199.05 115.20 198.99 115.93 198.95 C 115.92 200.30 115.92 201.64 115.93 202.99 C 115.19 202.99 113.72 203.00 112.99 203.00 C 112.99 201.69 113.00 200.39 113.00 199.08 Z" />
<path fill="#011881" opacity="1.00" d=" M 151.00 199.09 C 151.73 199.05 153.20 198.99 153.93 198.95 C 153.92 200.29 153.92 201.64 153.93 202.98 C 153.19 202.99 151.72 203.00 150.99 203.01 C 150.99 201.70 151.00 200.39 151.00 199.09 Z" />
<path fill="#011881" opacity="1.00" d=" M 166.99 199.09 C 167.73 199.05 169.20 198.99 169.93 198.95 C 169.92 200.29 169.92 201.64 169.93 202.99 C 169.19 202.99 167.73 203.00 167.00 203.00 C 166.99 201.70 166.99 200.39 166.99 199.09 Z" />
<path fill="#011881" opacity="1.00" d=" M 238.13 211.96 C 239.52 213.27 240.90 214.61 242.27 215.95 C 242.87 215.34 243.46 214.73 244.04 214.10 C 243.15 216.29 241.79 218.21 240.34 220.06 C 238.89 218.62 237.43 217.18 235.96 215.76 C 236.71 214.51 237.44 213.24 238.13 211.96 Z" />
</g>
</svg>
