<?xml version="1.0" encoding="UTF-8"?>
<!DOCTYPE svg PUBLIC "-//W3C//DTD SVG 1.1//EN" "http://www.w3.org/Graphics/SVG/1.1/DTD/svg11.dtd">
<!-- Creator: CorelDRAW -->
<svg xmlns="http://www.w3.org/2000/svg" xml:space="preserve" width="292.453mm" height="270.933mm" version="1.1" style="shape-rendering:geometricPrecision; text-rendering:geometricPrecision; image-rendering:optimizeQuality; fill-rule:evenodd; clip-rule:evenodd"
viewBox="0 0 29245.28 27093.32"
 xmlns:xlink="http://www.w3.org/1999/xlink"
 xmlns:xodm="http://www.corel.com/coreldraw/odm/2003">
 <defs>
  <style type="text/css">
   <![CDATA[
    .fil1 {fill:white;fill-rule:nonzero}
    .fil0 {fill:url(#id0)}
   ]]>
  </style>
  <linearGradient id="id0" gradientUnits="userSpaceOnUse" x1="1130.47" y1="13533.28" x2="28114.75" y2="13533.28">
   <stop offset="0" style="stop-opacity:1; stop-color:#002075"/>
   <stop offset="0.701961" style="stop-opacity:1; stop-color:#351678"/>
   <stop offset="1" style="stop-opacity:1; stop-color:#6A0C7B"/>
  </linearGradient>
 </defs>
 <g id="Capa_x0020_1">
  <metadata id="CorelCorpID_0Corel-Layer"/>
  <path class="fil0" d="M24610.26 31.49l-23139.88 3054.18c-230.88,30.49 -393.35,242.43 -362.97,473.37l0 0 3054.3 23139.88c30.45,230.93 242.32,393.41 473.26,362.97l0 0 23139.95 -3054.31c230.92,-30.45 393.4,-242.32 362.89,-473.31l0 0 -3054.24 -23139.89c-27.99,-212.19 -209.14,-366.6 -417.59,-366.6l0 0c-18.4,0 -36.98,1.19 -55.72,3.71l0 0z"/>
  <g id="_105553367091872">
   <polygon class="fil1" points="7355.84,9363.58 7355.84,9750.24 8329.57,9750.24 8329.57,10125.62 7355.84,10125.62 7355.84,10551.75 8431.16,10551.75 8431.16,10927.19 6938.13,10927.19 6938.13,8988.19 8431.16,8988.19 8431.16,9363.58 "/>
   <polygon class="fil1" points="9803.03,9953.45 10514.3,10927.14 10020.35,10927.14 9557.5,10292.13 9089.03,10927.14 8606.35,10927.14 9314.8,9961.9 8606.35,8988.21 9097.47,8988.21 9563.15,9623.22 10028.84,8988.21 10514.3,8988.21 "/>
   <path class="fil1" d="M10678.22 9956.28c0,-544.71 474.17,-1001.96 1030.16,-1001.96 293.58,0 564.49,124.18 753.59,324.56l-302 270.98c-112.86,-129.86 -273.76,-217.33 -451.59,-217.33 -324.56,0 -601.14,287.85 -601.14,623.75 0,338.67 276.58,626.57 601.14,626.57 177.83,0 338.73,-87.53 451.59,-217.31l302 270.91c-189.1,197.61 -460.01,324.61 -753.59,324.61 -555.99,0 -1030.16,-460.07 -1030.16,-1004.78z"/>
   <polygon class="fil1" points="14087.92,10551.79 14087.92,10927.17 12704.92,10927.17 12704.92,8988.18 13122.62,8988.18 13122.62,10551.79 "/>
   <path class="fil1" d="M14353.34 10088.93l0 -1100.71 414.88 0 0 1083.78c0,299.18 191.99,510.83 462.9,510.83 268.13,0 460.03,-211.65 460.03,-510.83l0 -1083.78 417.69 0 0 1100.71c0,510.84 -364.04,872.12 -877.72,872.12 -516.5,0 -877.78,-361.28 -877.78,-872.12z"/>
   <path class="fil1" d="M16360.3 10639.28l239.92 -285.02c183.44,158 392.27,253.97 637.84,253.97 208.88,0 316.14,-95.97 316.14,-217.31 0,-138.3 -112.92,-180.62 -409.26,-248.37 -409.21,-93.14 -699.96,-208.87 -699.96,-584.26 0,-358.38 293.53,-603.97 716.89,-603.97 316.12,0 561.65,98.8 759.21,268.13l-217.32 299.18c-172.16,-138.28 -366.88,-214.48 -553.16,-214.48 -177.83,0 -285.08,93.09 -285.08,208.82 0,141.13 115.68,186.27 414.93,254.04 417.64,93.12 694.28,217.32 694.28,575.75 0,369.73 -279.42,615.3 -753.6,615.3 -335.84,0 -635.02,-112.95 -860.83,-321.78z"/>
   <polygon class="fil1" points="18279.78,8988.22 18697.53,8988.22 18697.53,10927.21 18279.78,10927.21 "/>
   <polygon class="fil1" points="20975.17,8988.19 20184.93,10927.19 19719.19,10927.19 18929,8988.19 19397.46,8988.19 19953.45,10354.26 20509.5,8988.19 "/>
   <path class="fil1" d="M22761.99 9956.28c0,-335.9 -276.58,-623.75 -604.03,-623.75 -324.57,0 -601.14,287.85 -601.14,623.75 0,338.67 276.57,626.57 601.14,626.57 327.45,0 604.03,-287.9 604.03,-626.57zm-1634.15 0c0,-544.71 474.12,-1001.96 1030.12,-1001.96 561.71,0 1030.16,457.25 1030.16,1001.96 0,544.71 -468.45,1004.78 -1030.16,1004.78 -556,0 -1030.12,-460.07 -1030.12,-1004.78z"/>
   <path class="fil1" d="M11642.06 13344.37c206.05,0 347.16,-107.3 347.16,-273.75 0,-166.56 -141.11,-273.8 -347.16,-273.8l-412.03 0 0 547.55 412.03 0zm-826.96 -928.59l872.12 0c420.58,0 731.04,270.97 731.04,654.84 0,383.83 -310.46,654.74 -731.04,654.74l-457.19 0 0 629.41 -414.93 0 0 -1938.99z"/>
   <path class="fil1" d="M13832.47 13697.13l-287.91 -708.39 -287.87 708.39 575.78 0zm143.95 352.83l-863.67 0 -124.19 304.78 -465.68 0 790.24 -1938.93 465.74 0 790.2 1938.93 -468.46 0 -124.18 -304.78z"/>
   <path class="fil1" d="M15212.84 13344.37l412.09 0c206.04,0 347.1,-107.3 347.1,-273.75 0,-166.56 -141.06,-273.8 -347.1,-273.8l-412.09 0 0 547.55zm750.75 1010.4l-443.14 -629.41 -307.61 0 0 629.41 -414.88 0 0 -1938.99 872.17 0c420.48,0 730.94,270.97 730.94,654.84 0,287.86 -174.95,513.61 -440.31,606.76l477.01 677.39 -474.18 0z"/>
   <path class="fil1" d="M17866.09 13697.13l-287.9 -708.39 -287.86 708.39 575.76 0zm143.95 352.83l-863.67 0 -124.18 304.78 -465.69 0 790.26 -1938.93 465.74 0 790.19 1938.93 -468.46 0 -124.19 -304.78z"/>
   <path class="fil1" d="M4207.16 17494.49l239.93 -285.08c183.45,158.07 392.26,254.04 637.85,254.04 208.82,0 316.12,-95.97 316.12,-217.39 0,-138.29 -112.91,-180.61 -409.26,-248.31 -409.2,-93.13 -699.94,-208.87 -699.94,-584.25 0,-358.44 293.52,-604.03 716.89,-604.03 316.12,0 561.59,98.86 759.19,268.14l-217.32 299.18c-172.16,-138.29 -366.88,-214.48 -553.16,-214.48 -177.82,0 -285.13,93.12 -285.13,208.87 0,141.12 115.75,186.28 414.99,253.98 417.65,93.13 694.28,217.32 694.28,575.76 0,369.7 -279.41,615.3 -753.59,615.3 -335.85,0 -635.03,-112.91 -860.85,-321.73z"/>
   <path class="fil1" d="M6118.11 16944.09l0 -1100.71 414.92 0 0 1083.77c0,299.23 191.93,510.84 462.86,510.84 268.13,0 460.01,-211.61 460.01,-510.84l0 -1083.77 417.71 0 0 1100.71c0,510.9 -364.06,872.16 -877.72,872.16 -516.51,0 -877.78,-361.26 -877.78,-872.16z"/>
   <path class="fil1" d="M8125.05 17494.49l239.93 -285.08c183.44,158.07 392.26,254.04 637.85,254.04 208.83,0 316.12,-95.97 316.12,-217.39 0,-138.29 -112.91,-180.61 -409.25,-248.31 -409.21,-93.13 -699.95,-208.87 -699.95,-584.25 0,-358.44 293.51,-604.03 716.89,-604.03 316.12,0 561.6,98.86 759.19,268.14l-217.31 299.18c-172.17,-138.29 -366.88,-214.48 -553.15,-214.48 -177.85,0 -285.13,93.12 -285.13,208.87 0,141.12 115.73,186.28 414.97,253.98 417.65,93.13 694.27,217.32 694.27,575.76 0,369.7 -279.4,615.3 -753.59,615.3 -335.83,0 -635.01,-112.91 -860.84,-321.73z"/>
   <path class="fil1" d="M9962.66 16811.48c0,-544.77 474.18,-1001.96 1030.16,-1001.96 293.58,0 564.49,124.19 753.59,324.52l-302.01 270.95c-112.86,-129.78 -273.75,-217.26 -451.58,-217.26 -324.56,0 -601.14,287.85 -601.14,623.75 0,338.67 276.58,626.52 601.14,626.52 177.83,0 338.72,-87.52 451.58,-217.26l302.01 270.91c-189.1,197.55 -460.01,324.57 -753.59,324.57 -555.98,0 -1030.16,-460.02 -1030.16,-1004.74z"/>
   <path class="fil1" d="M12418.36 16771.97l412.09 0c206.05,0 347.12,-107.3 347.12,-273.75 0,-166.56 -141.07,-273.86 -347.12,-273.86l-412.09 0 0 547.61zm750.76 1010.39l-443.14 -629.41 -307.62 0 0 629.41 -414.87 0 0 -1939 872.16 0c420.49,0 730.94,270.98 730.94,654.86 0,287.85 -174.94,513.61 -440.3,606.74l477.01 677.4 -474.18 0z"/>
   <polygon class="fil1" points="13922.86,15843.38 14340.62,15843.38 14340.62,17782.37 13922.86,17782.37 "/>
   <path class="fil1" d="M15554.36 16771.97c206,0 347.12,-107.3 347.12,-273.75 0,-166.56 -141.12,-273.86 -347.12,-273.86l-412.09 0 0 547.61 412.09 0zm-827.01 -928.61l872.17 0c420.53,0 730.98,270.98 730.98,654.86 0,383.82 -310.45,654.73 -730.98,654.73l-457.25 0 0 629.41 -414.92 0 0 -1939z"/>
   <polygon class="fil1" points="17092.72,16218.74 16488.74,16218.74 16488.74,15843.36 18114.44,15843.36 18114.44,16218.74 17510.47,16218.74 17510.47,17782.36 17092.72,17782.36 "/>
   <path class="fil1" d="M19856.02 16811.48c0,-335.9 -276.58,-623.75 -604.03,-623.75 -324.57,0 -601.14,287.85 -601.14,623.75 0,338.67 276.57,626.52 601.14,626.52 327.45,0 604.03,-287.85 604.03,-626.52zm-1634.15 0c0,-544.77 474.14,-1001.96 1030.12,-1001.96 561.71,0 1030.18,457.19 1030.18,1001.96 0,544.72 -468.47,1004.74 -1030.18,1004.74 -555.98,0 -1030.12,-460.02 -1030.12,-1004.74z"/>
   <path class="fil1" d="M21004.97 16771.97l412.09 0c206.05,0 347.12,-107.3 347.12,-273.75 0,-166.56 -141.07,-273.86 -347.12,-273.86l-412.09 0 0 547.61zm750.77 1010.39l-443.14 -629.41 -307.63 0 0 629.41 -414.87 0 0 -1939 872.17 0c420.47,0 730.94,270.98 730.94,654.86 0,287.85 -174.95,513.61 -440.32,606.74l477.03 677.4 -474.18 0z"/>
   <polygon class="fil1" points="22921.66,16218.74 22921.66,16605.44 23895.35,16605.44 23895.35,16980.77 22921.66,16980.77 22921.66,17406.97 23996.92,17406.97 23996.92,17782.36 22503.9,17782.36 22503.9,15843.36 23996.92,15843.36 23996.92,16218.74 "/>
   <path class="fil1" d="M24186.24 17494.49l239.92 -285.08c183.44,158.07 392.27,254.04 637.86,254.04 208.82,0 316.12,-95.97 316.12,-217.39 0,-138.29 -112.91,-180.61 -409.26,-248.31 -409.21,-93.13 -699.94,-208.87 -699.94,-584.25 0,-358.44 293.51,-604.03 716.87,-604.03 316.14,0 561.67,98.86 759.21,268.14l-217.32 299.18c-172.16,-138.29 -366.88,-214.48 -553.16,-214.48 -177.83,0 -285.07,93.12 -285.07,208.87 0,141.12 115.69,186.28 414.92,253.98 417.64,93.13 694.28,217.32 694.28,575.76 0,369.7 -279.42,615.3 -753.54,615.3 -335.9,0 -635.08,-112.91 -860.89,-321.73z"/>
  </g>
 </g>
</svg>
