<svg id="visual" viewBox="0 0 932 300" width="932" height="300" xmlns="http://www.w3.org/2000/svg" xmlns:xlink="http://www.w3.org/1999/xlink" version="1.1"><rect x="0" y="0" width="932" height="300" fill="#fff0"></rect><path d="M0 188L22.2 190.7C44.3 193.3 88.7 198.7 133 204.5C177.3 210.3 221.7 216.7 266 213.2C310.3 209.7 354.7 196.3 399.2 198.2C443.7 200 488.3 217 532.8 213.5C577.3 210 621.7 186 666 182.8C710.3 179.7 754.7 197.3 799 203.7C843.3 210 887.7 205 909.8 202.5L932 200L932 0L909.8 0C887.7 0 843.3 0 799 0C754.7 0 710.3 0 666 0C621.7 0 577.3 0 532.8 0C488.3 0 443.7 0 399.2 0C354.7 0 310.3 0 266 0C221.7 0 177.3 0 133 0C88.7 0 44.3 0 22.2 0L0 0Z" fill="#4f7ab7"></path><path d="M0 130L22.2 136C44.3 142 88.7 154 133 155.5C177.3 157 221.7 148 266 154.3C310.3 160.7 354.7 182.3 399.2 190.5C443.7 198.7 488.3 193.3 532.8 182.5C577.3 171.7 621.7 155.3 666 148C710.3 140.7 754.7 142.3 799 147C843.3 151.7 887.7 159.3 909.8 163.2L932 167L932 0L909.8 0C887.7 0 843.3 0 799 0C754.7 0 710.3 0 666 0C621.7 0 577.3 0 532.8 0C488.3 0 443.7 0 399.2 0C354.7 0 310.3 0 266 0C221.7 0 177.3 0 133 0C88.7 0 44.3 0 22.2 0L0 0Z" fill="#4876b6"></path><path d="M0 161L22.2 154.8C44.3 148.7 88.7 136.3 133 128.7C177.3 121 221.7 118 266 115.5C310.3 113 354.7 111 399.2 110C443.7 109 488.3 109 532.8 118.8C577.3 128.7 621.7 148.3 666 158.7C710.3 169 754.7 170 799 166.8C843.3 163.7 887.7 156.3 909.8 152.7L932 149L932 0L909.8 0C887.7 0 843.3 0 799 0C754.7 0 710.3 0 666 0C621.7 0 577.3 0 532.8 0C488.3 0 443.7 0 399.2 0C354.7 0 310.3 0 266 0C221.7 0 177.3 0 133 0C88.7 0 44.3 0 22.2 0L0 0Z" fill="#4272b5"></path><path d="M0 99L22.2 95.8C44.3 92.7 88.7 86.3 133 88.2C177.3 90 221.7 100 266 100.3C310.3 100.7 354.7 91.3 399.2 89.2C443.7 87 488.3 92 532.8 100.2C577.3 108.3 621.7 119.7 666 117.2C710.3 114.7 754.7 98.3 799 98.5C843.3 98.7 887.7 115.3 909.8 123.7L932 132L932 0L909.8 0C887.7 0 843.3 0 799 0C754.7 0 710.3 0 666 0C621.7 0 577.3 0 532.8 0C488.3 0 443.7 0 399.2 0C354.7 0 310.3 0 266 0C221.7 0 177.3 0 133 0C88.7 0 44.3 0 22.2 0L0 0Z" fill="#3a6eb5"></path><path d="M0 48L22.2 53C44.3 58 88.7 68 133 72.7C177.3 77.3 221.7 76.7 266 74C310.3 71.3 354.7 66.7 399.2 69.8C443.7 73 488.3 84 532.8 83.5C577.3 83 621.7 71 666 65C710.3 59 754.7 59 799 57.2C843.3 55.3 887.7 51.7 909.8 49.8L932 48L932 0L909.8 0C887.7 0 843.3 0 799 0C754.7 0 710.3 0 666 0C621.7 0 577.3 0 532.8 0C488.3 0 443.7 0 399.2 0C354.7 0 310.3 0 266 0C221.7 0 177.3 0 133 0C88.7 0 44.3 0 22.2 0L0 0Z" fill="#3269b4"></path><path d="M0 44L22.2 40.5C44.3 37 88.7 30 133 27.3C177.3 24.7 221.7 26.3 266 32.3C310.3 38.3 354.7 48.7 399.2 48C443.7 47.3 488.3 35.7 532.8 34.2C577.3 32.7 621.7 41.3 666 44C710.3 46.7 754.7 43.3 799 42C843.3 40.7 887.7 41.3 909.8 41.7L932 42L932 0L909.8 0C887.7 0 843.3 0 799 0C754.7 0 710.3 0 666 0C621.7 0 577.3 0 532.8 0C488.3 0 443.7 0 399.2 0C354.7 0 310.3 0 266 0C221.7 0 177.3 0 133 0C88.7 0 44.3 0 22.2 0L0 0Z" fill="#2a65b3"></path></svg>